<?xml version="1.0" standalone="no"?>
<!DOCTYPE svg PUBLIC "-//W3C//DTD SVG 20010904//EN"
 "http://www.w3.org/TR/2001/REC-SVG-20010904/DTD/svg10.dtd">
<svg version="1.0" xmlns="http://www.w3.org/2000/svg"
 width="600.000000pt" height="600.000000pt" viewBox="0 0 600.000000 600.000000"
 preserveAspectRatio="xMidYMid meet">

<g transform="translate(0.000000,600.000000) scale(0.100000,-0.100000)"
fill="#000000" stroke="none">
<path d="M2935 4980 c-86 -22 -147 -70 -181 -145 -34 -72 -39 -123 -19 -191
28 -97 91 -165 177 -193 l37 -12 -76 -62 c-329 -265 -650 -702 -856 -1167
-211 -476 -340 -966 -432 -1643 l-6 -48 77 61 c171 136 292 208 474 280 99 39
130 47 130 33 0 -5 11 -73 25 -152 24 -141 24 -161 4 -161 -6 0 -63 -25 -127
-55 -141 -67 -314 -181 -402 -264 l-65 -62 72 51 c140 100 406 238 530 274 26
8 25 10 53 -149 21 -118 68 -256 113 -333 l22 -37 3 80 c4 107 -11 194 -58
340 -22 67 -40 124 -40 128 0 9 208 56 321 72 137 19 441 19 578 0 118 -17
318 -63 326 -74 2 -5 -14 -71 -36 -147 -33 -116 -41 -159 -46 -261 -7 -148 3
-157 52 -49 42 89 70 193 85 306 6 47 14 95 17 107 l5 22 56 -21 c150 -55 357
-166 492 -262 l65 -47 -63 60 c-111 105 -350 253 -496 307 -47 17 -48 18 -42
53 3 20 13 91 22 159 12 87 21 122 30 122 19 0 203 -74 277 -111 82 -42 182
-108 295 -197 l93 -73 -6 48 c-111 817 -295 1431 -584 1948 -188 334 -432 635
-695 855 l-88 74 32 11 c87 29 155 129 164 240 5 54 5 56 -4 18 -22 -104 -77
-162 -175 -184 -103 -23 -205 23 -250 114 -39 79 -30 152 26 220 44 54 95 77
170 77 76 0 136 -26 179 -78 17 -20 30 -31 30 -24 0 7 -24 37 -52 66 -70 72
-149 98 -233 76z m227 -962 c484 -481 864 -1178 1093 -2002 48 -174 87 -344
83 -357 -2 -4 -61 28 -133 73 -412 255 -768 361 -1215 360 -431 0 -788 -108
-1195 -360 -81 -50 -131 -76 -133 -68 -5 21 103 430 158 600 189 580 482 1134
812 1532 107 129 345 364 369 364 10 0 82 -63 161 -142z m175 -2018 c129 -18
371 -74 385 -88 5 -6 -75 -289 -85 -299 -2 -1 -41 9 -87 23 -348 101 -731 103
-1078 6 l-101 -29 -50 148 c-27 82 -46 151 -43 153 19 11 211 58 312 75 158
28 158 28 400 29 167 2 244 -2 347 -18z"/>
<path d="M2974 3418 c-17 -18 -186 -217 -374 -443 -189 -225 -379 -452 -423
-502 l-79 -93 215 0 215 0 56 75 56 75 353 0 353 0 55 -75 54 -74 223 -1 222
0 -199 243 c-560 680 -677 821 -686 824 -6 2 -25 -11 -41 -29z m132 -553 l105
-150 -217 -3 c-119 -1 -219 0 -221 2 -7 7 210 306 220 303 4 -1 55 -70 113
-152z"/>
<path d="M3221 4815 c1 -19 18 -51 18 -35 0 8 -4 22 -9 30 -5 8 -9 11 -9 5z"/>
</g>
</svg>
