<?xml version="1.0" standalone="no"?>
<!DOCTYPE svg PUBLIC "-//W3C//DTD SVG 20010904//EN"
 "http://www.w3.org/TR/2001/REC-SVG-20010904/DTD/svg10.dtd">
<svg version="1.0" xmlns="http://www.w3.org/2000/svg"
 width="1366.000000pt" height="402.000000pt" viewBox="0 0 1366.000000 402.000000"
 preserveAspectRatio="xMidYMid meet">

<g transform="translate(0.000000,402.000000) scale(0.100000,-0.100000)"
fill="#000000" stroke="none">
<path d="M1778 3776 c-157 -42 -222 -221 -135 -368 27 -44 43 -58 95 -84 l62
-31 -69 -57 c-101 -81 -259 -243 -353 -360 -393 -492 -649 -1157 -772 -2006
-14 -95 -24 -175 -23 -177 2 -1 31 21 66 49 117 95 250 176 371 227 183 77
162 85 188 -75 12 -76 19 -141 15 -144 -5 -4 -42 -22 -83 -41 -157 -71 -310
-169 -425 -274 -49 -44 -38 -39 91 48 93 61 288 161 391 201 49 18 44 27 68
-114 9 -52 25 -122 36 -154 26 -76 76 -176 89 -176 28 0 -4 221 -53 370 -24
73 -31 107 -23 111 17 10 179 46 271 60 118 19 437 16 560 -5 140 -23 255 -56
255 -71 0 -7 -14 -57 -31 -111 -35 -115 -58 -300 -42 -336 10 -22 11 -21 35
27 40 78 75 201 88 307 8 63 17 98 25 98 44 0 300 -128 430 -214 54 -36 100
-65 101 -63 5 5 -134 116 -210 167 -43 29 -131 77 -195 108 -64 30 -118 57
-120 59 -3 2 4 66 14 144 22 165 1 157 189 76 125 -54 240 -125 361 -221 38
-30 70 -54 71 -53 3 4 -26 214 -46 332 -53 307 -111 541 -199 805 -132 393
-312 740 -529 1020 -79 102 -281 310 -374 387 -38 30 -68 59 -68 63 0 4 11 11
25 14 36 9 93 63 117 110 13 25 22 65 24 106 2 59 2 60 -4 15 -15 -108 -88
-170 -203 -170 -54 0 -72 5 -106 27 -49 32 -80 79 -89 135 -8 52 29 140 72
170 92 64 192 55 270 -23 38 -38 42 -40 30 -15 -25 48 -93 99 -148 110 -57 13
-50 13 -110 -3z m183 -823 c438 -419 791 -1051 1000 -1788 42 -147 92 -355 87
-360 -2 -2 -57 31 -123 72 -375 235 -735 335 -1150 320 -367 -13 -664 -109
-1012 -326 -62 -39 -113 -65 -113 -58 0 39 100 402 159 577 212 629 505 1134
876 1508 83 83 157 152 163 152 6 0 57 -44 113 -97z m199 -1837 c106 -16 308
-62 330 -76 8 -5 1 -41 -26 -131 -21 -68 -41 -128 -44 -132 -4 -5 -47 3 -96
17 -178 50 -255 60 -474 60 -219 0 -308 -11 -472 -59 -46 -13 -86 -21 -90 -17
-7 7 -88 240 -88 254 0 20 300 85 444 96 140 11 399 5 516 -12z"/>
<path d="M1450 1939 c-217 -259 -396 -475 -398 -480 -2 -5 75 -9 185 -9 l188
1 50 69 50 69 317 1 316 0 52 -70 52 -70 194 0 c107 0 194 3 193 8 -1 15 -776
947 -790 949 -8 2 -181 -196 -409 -468z m494 -50 l94 -134 -99 -3 c-55 -1
-144 -1 -199 0 l-101 3 44 60 c24 33 70 95 101 138 32 44 59 77 62 75 2 -2 46
-65 98 -139z"/>
<path d="M6400 2425 l-265 -265 123 0 122 0 0 -130 0 -130 -120 0 -120 0 0
-130 0 -130 120 0 120 0 0 -253 c0 -281 8 -331 60 -391 16 -18 56 -45 89 -60
l59 -26 309 11 c169 6 315 13 323 16 8 2 -8 13 -39 23 -125 45 -188 98 -211
179 -5 20 -10 141 -10 269 l0 232 299 0 299 0 4 -267 3 -268 28 -56 c30 -61
73 -98 145 -123 38 -14 82 -14 358 -4 173 7 314 15 314 20 0 4 -6 8 -12 8 -23
1 -129 48 -168 75 -23 16 -49 47 -62 74 -22 43 -23 60 -26 294 l-4 247 196 0
197 0 -3 128 -3 127 -192 3 -193 2 0 130 0 130 117 0 118 0 -268 267 -267 268
-267 -268 -268 -267 128 0 127 0 0 -130 0 -130 -300 0 -300 0 0 130 0 130 122
0 123 0 -265 265 c-146 146 -267 265 -270 265 -3 0 -124 -119 -270 -265z"/>
<path d="M4140 1749 c-360 -429 -661 -788 -669 -799 -13 -20 -10 -20 303 -20
l316 0 86 115 86 115 529 0 529 0 86 -115 86 -115 330 0 329 0 -18 23 c-10 13
-305 373 -657 800 -487 593 -643 777 -660 777 -15 -1 -190 -202 -676 -781z
m818 -82 l163 -232 -165 -3 c-90 -1 -241 -1 -335 0 l-171 3 168 232 c92 128
169 233 172 233 3 0 78 -105 168 -233z"/>
<path d="M10740 2426 c-197 -42 -268 -177 -148 -280 72 -62 203 -92 322 -75
89 12 154 41 200 88 146 150 -101 327 -374 267z"/>
<path d="M9168 1925 c-249 -40 -475 -167 -561 -315 -109 -188 -53 -417 136
-557 149 -109 285 -153 503 -160 172 -6 242 3 383 50 52 17 96 27 98 21 10
-29 45 -74 57 -74 20 0 509 80 513 84 2 1 -2 25 -8 52 -6 28 -13 224 -16 459
l-5 411 -242 -4 c-222 -4 -249 -3 -346 18 -133 29 -382 36 -512 15z m495 -265
l37 -11 -2 -222 -3 -221 -70 -30 c-61 -26 -82 -30 -165 -30 -83 0 -103 3 -158
29 -148 67 -207 207 -141 336 35 69 138 137 241 159 53 11 210 5 261 -10z"/>
<path d="M10803 1917 l-243 -20 0 -484 0 -483 290 0 290 0 0 505 0 505 -47 -1
c-27 -1 -157 -11 -290 -22z"/>
<path d="M12330 1901 c-104 -22 -216 -66 -304 -119 l-65 -40 -3 76 -3 77 -260
0 -260 0 -3 -482 -2 -483 285 0 285 0 0 253 c0 154 4 268 11 292 16 58 81 119
148 139 82 24 223 22 278 -5 24 -12 49 -31 56 -42 8 -16 13 -112 17 -327 l5
-305 283 -3 283 -2 -3 372 -3 373 -29 53 c-51 91 -148 150 -291 177 -107 21
-317 18 -425 -4z"/>
</g>
</svg>
