<svg id="Capa_1" data-name="Capa 1" xmlns="http://www.w3.org/2000/svg" viewBox="0 0 1366 401.22"><defs><style>.cls-1{fill:#eb2626;}</style></defs><title>Attain_RedGate</title><path class="cls-1" d="M251.46,298.44a210.16,210.16,0,0,1,28.64,11.82l.22.13a196.45,196.45,0,0,1,27,18.83l4.59,3.77-.75-6.06Q309,309.44,305.82,292c-2.08-11.6-4.47-23.17-7.34-34.65a442.45,442.45,0,0,0-22.12-67.7,331.43,331.43,0,0,0-34.72-63,254.7,254.7,0,0,0-50-52.94l-2.71-2.13a21.1,21.1,0,0,0,5.56-2,22.64,22.64,0,0,0,7.27-6.19A26.63,26.63,0,0,0,207,46.58a25.44,25.44,0,0,0-6.17-15.91,22.58,22.58,0,0,0-7.06-5.46A22.26,22.26,0,0,0,185,23a24,24,0,0,0-17.15,6.47,24.53,24.53,0,0,0-7.61,17.14,25.63,25.63,0,0,0,6.73,18,23.84,23.84,0,0,0,8.2,5.7,23.08,23.08,0,0,0,5.54,1.51l-2.39,1.88a246.62,246.62,0,0,0-27,24.74,271.45,271.45,0,0,0-23,28.17,332.38,332.38,0,0,0-34.74,63c-4.73,11-8.72,22.21-12.45,33.49-3.57,11.34-6.91,22.72-9.66,34.23S66.13,280.42,64.05,292s-3.87,23.24-5.3,34.91L58,333.05l4.63-3.81a196.52,196.52,0,0,1,27-18.84l.63-.36a215.53,215.53,0,0,1,28.27-11.67c.94,6.22,2,12.4,3,18.6l1.71,9.75-1.34.5C102,335,83.45,346.38,68.29,361.06l0,0a.32.32,0,0,0,.41.48A193.09,193.09,0,0,1,123.54,332l.63-.21,1.16,6.11c.66,3.48,1.17,7,1.73,10.49a66.12,66.12,0,0,0,2.51,10.3,105.9,105.9,0,0,0,3.82,10,64.3,64.3,0,0,0,5.18,9.64l.87-.22a64.58,64.58,0,0,0,.08-10.94c-.25-3.58-.69-7.11-1.28-10.6a67.29,67.29,0,0,0-2.6-10.28c-1.14-3.36-2.34-6.7-3.38-10.08l-2-6.34a186.47,186.47,0,0,1,54.65-8l7.81.11c2.61.07,5.2.36,7.8.52l3.9.3c1.29.12,2.58.33,3.87.49,2.58.37,5.17.67,7.75,1.08a198.48,198.48,0,0,1,24.39,5.85l-1.72,6.11c-.95,3.39-2.05,6.74-3.11,10.1a67,67,0,0,0-2.31,10.28,103,103,0,0,0-1,10.57,64.2,64.2,0,0,0,.37,10.87l.88.19a64.09,64.09,0,0,0,4.92-9.7,105.32,105.32,0,0,0,3.55-10,67,67,0,0,0,2.23-10.3c.46-3.49.88-7,1.45-10.47l.91-5.65a191.79,191.79,0,0,1,54.59,29.43.33.33,0,0,0,.42,0,.32.32,0,0,0,0-.45l0,0A161.07,161.07,0,0,0,248,327.29l-.53-.22L249,316.92C249.79,310.76,250.69,304.61,251.46,298.44ZM172.29,59.25a17.91,17.91,0,0,1-6-12.67A19,19,0,0,1,171.41,33,19.56,19.56,0,0,1,185,26.8a21.24,21.24,0,0,1,14.77,5,19.08,19.08,0,0,1,4.93,6.61,18.78,18.78,0,0,1,1.61,8.16,17.86,17.86,0,0,1-2.14,8,18.26,18.26,0,0,1-5.28,5.95,22.09,22.09,0,0,1-13.89,4A20.36,20.36,0,0,1,172.29,59.25ZM71.46,293.67c3-11.24,6.32-22.38,10.08-33.35s7.85-21.8,12.23-32.47l3.46-7.93L99,216l1.83-3.9,3.68-7.8c1.19-2.62,2.6-5.12,3.89-7.69a376.37,376.37,0,0,1,36.22-57.84A276.87,276.87,0,0,1,185,96.2a276.85,276.85,0,0,1,40.41,42.5,377.79,377.79,0,0,1,36.25,57.84c1.29,2.57,2.69,5.08,3.89,7.69l3.67,7.8,1.84,3.91,1.73,4,3.45,7.93c4.38,10.67,8.58,21.47,12.22,32.48s7.06,22.11,10.08,33.35c2.52,9.35,4.73,18.79,6.71,28.29q-7.17-4.86-14.69-9.15a182.39,182.39,0,0,0-39.09-19.65c-1.31-.53-2.64-1-4-1.41l-4-1.33c-1.34-.44-2.68-.88-4-1.26l-4.1-1.08c-5.44-1.55-11-2.58-16.53-3.75-2.79-.48-5.6-.82-8.4-1.22-1.41-.17-2.81-.41-4.22-.54l-4.23-.34c-2.82-.2-5.64-.52-8.47-.61l-8.49-.2a202.55,202.55,0,0,0-33.8,2.94c-1.39.25-2.79.47-4.17.74l-4.14.94c-2.75.66-5.53,1.16-8.24,2s-5.45,1.48-8.15,2.31l-8,2.76a185.5,185.5,0,0,0-39.17,19.76q-7.44,4.23-14.54,9C66.73,312.41,68.93,303,71.46,293.67Zm169,30.85c-1.27-.45-2.54-.87-3.82-1.28l-3.87-1.08-3.89-1.08-1.94-.54-2-.43-7.88-1.74c-2.64-.51-5.31-.84-8-1.24-1.34-.19-2.66-.42-4-.56l-4-.35c-2.68-.2-5.36-.51-8.05-.62l-8.08-.19a180.33,180.33,0,0,0-32.13,3c-1.32.26-2.65.47-4,.77l-3.92.94c-2.61.65-5.24,1.19-7.8,2s-5.17,1.48-7.71,2.34l-.72.27-2.85-8.81c-2-6-4-12-6.08-17.95l.23-.08a209.43,209.43,0,0,1,32.08-7.58,182.58,182.58,0,0,1,21.12-2.2q5.88.12,11.75.67c-3.51-.37-7-.59-10.55-.72,3.51-.15,7-.24,10.54-.25l8.25.11c.91,0,1.82.07,2.73.13-3.67.12-7.33.35-11,.73q5.94-.56,11.9-.67c1.52.11,3,.23,4.56.32l4.12.29c1.37.11,2.73.33,4.09.49l8.18,1.06a225,225,0,0,1,32.07,7.67l.29.1c-1.92,6-3.7,12-5.57,17.93l-2.68,9.1Z"/><path d="M104.66,256.12l80-95.18H187l78.24,95.18H226.07l-10-13.44H152.49l-10.17,13.44Zm58.65-29.35h41.22l-20.34-28.91Z"/><path d="M345.86,308.22,479.75,148.87h4l131,159.35H549.14l-16.67-22.49H425.94l-17,22.49Zm98.19-49.13h69L479,210.69Z"/><path d="M1027.06,212.18v60q0,11.3.72,19a81.45,81.45,0,0,0,2.18,13.11l-52.72,8.53-5.08-9.17a111.13,111.13,0,0,1-20.92,6.93,100.51,100.51,0,0,1-21.47,2.24q-31.53,0-53-14.82T855.3,261.11q0-23.24,24.1-38.37t60.88-15.14A119,119,0,0,1,958,209a205.34,205.34,0,0,1,20.47,4.26Zm-56.89,24.41a62,62,0,0,0-9.69-2.45,58.18,58.18,0,0,0-9.15-.74q-16.12,0-27.18,7.94t-11,20q0,11.31,9.69,18.82t23.65,7.51a39.85,39.85,0,0,0,11.5-1.76,58.45,58.45,0,0,0,12.23-5.38Z"/><path d="M1053.39,176.37q0-7.68,9.06-13t22.1-5.32q13.23,0,22.19,5.27t9,13.06q0,7.68-9.06,13.11t-22.1,5.44q-12.69,0-21.92-5.49T1053.39,176.37Zm60.15,131.85h-57.43v-96l57.43-4.58Z"/><path d="M1200,308.22h-56.71v-96h52.36v16.1a96.39,96.39,0,0,1,27.72-14.12,105.35,105.35,0,0,1,31.89-4.64q25.9,0,39.31,8.74T1308,243.84v64.38h-56.35v-55q0-7.56-5.25-11.4T1230.82,238q-14.86,0-22.83,5.86t-8,17.06Z"/><path d="M734.34,237.45V212.18H695.75V185.83h24.58l-53.42-53.42-53.42,53.42h24.28v26.35H614v25.27h23.73v38.48q0,17.47,4.9,24.25t17,10.18l64.5-2.56q-16.5-4.91-22.47-10.71t-6-18.82V237.45Z"/><path d="M852.71,237.45V212.18H814.12V185.83h23l-53.42-53.42L730.3,185.83h25.84v26.35H732.41v25.27h23.73v38.48q0,17.47,4.89,24.25t17,10.18l64.5-2.56q-16.48-4.91-22.46-10.71t-6-18.82V237.45Z"/></svg>